# 3ds Max Wavefront OBJ Exporter v0.97b - (c)2007 guruware
# File Created: 12.05.2015 19:19:24

#
# object Box001
#

v  -0.0006 0.0000 0.0006
v  -0.0013 0.1331 0.0013
v  -0.0013 0.1331 -0.0013
v  -0.0006 0.0000 -0.0006
v  -0.0084 0.1331 0.0084
v  -0.0084 0.1331 -0.0084
v  -0.0084 0.1500 0.0084
v  -0.0084 0.1500 -0.0084
v  0.0006 0.0000 0.0006
v  0.0006 0.0000 -0.0006
v  0.0013 0.1331 -0.0013
v  0.0013 0.1331 0.0013
v  0.0084 0.1331 -0.0084
v  0.0084 0.1331 0.0084
v  0.0084 0.1500 -0.0084
v  0.0084 0.1500 0.0084
# 16 vertices

vn -1.0000 -0.0057 0.0000
vn -0.5504 -0.8349 -0.0000
vn -0.8935 -0.4491 0.0000
vn -1.0000 -0.0029 0.0000
vn 1.0000 -0.0057 -0.0000
vn 0.5504 -0.8349 -0.0000
vn 0.8935 -0.4491 -0.0000
vn 1.0000 -0.0029 -0.0000
vn 1.0000 -0.0029 0.0000
vn -0.0000 -1.0000 0.0000
vn -0.0000 -0.0057 -1.0000
vn -0.0000 -0.8349 -0.5504
vn -0.0000 -0.4491 -0.8935
vn -0.0000 -0.0029 -1.0000
vn -0.0000 1.0000 -0.0000
vn -0.0000 1.0000 0.0000
vn 0.0000 -0.0029 1.0000
vn 0.0000 -0.4491 0.8935
vn 0.0000 -0.8349 0.5504
vn 0.0000 -0.0057 1.0000
# 20 vertex normals

vt 1.0000 0.0000 0.0000
vt 1.0000 0.3333 0.0000
vt 0.0000 0.3333 0.0000
vt 0.0000 0.0000 0.0000
vt 1.0000 0.6667 0.0000
vt 0.0000 0.6667 0.0000
vt 1.0000 1.0000 0.0000
vt 0.0000 1.0000 0.0000
vt 0.3333 0.0000 0.0000
vt 0.3333 1.0000 0.0000
vt 0.6667 0.0000 0.0000
vt 0.6667 1.0000 0.0000
# 12 texture coords

g Box001
s 2
f 1/1/1 2/2/2 3/3/2 
f 3/3/2 4/4/1 1/1/1 
f 2/2/2 5/5/3 6/6/3 
f 6/6/3 3/3/2 2/2/2 
f 5/5/3 7/7/4 8/8/4 
f 8/8/4 6/6/3 5/5/3 
s 4
f 9/4/5 10/1/5 11/2/6 
f 11/2/6 12/3/6 9/4/5 
f 12/3/6 11/2/6 13/5/7 
f 13/5/7 14/6/7 12/3/6 
f 14/6/7 13/5/7 15/7/8 
f 15/7/8 16/8/9 14/6/7 
s 8
f 1/4/10 4/1/10 10/7/10 
f 10/7/10 9/8/10 1/4/10 
s 16
f 4/4/11 3/9/12 11/10/12 
f 11/10/12 10/8/11 4/4/11 
f 3/9/12 6/11/13 13/12/13 
f 13/12/13 11/10/12 3/9/12 
f 6/11/13 8/1/14 15/7/14 
f 15/7/14 13/12/13 6/11/13 
s 32
f 8/4/15 7/1/16 16/7/15 
f 16/7/15 15/8/15 8/4/15 
s 64
f 7/4/17 5/9/18 14/10/18 
f 14/10/18 16/8/17 7/4/17 
f 5/9/18 2/11/19 12/12/19 
f 12/12/19 14/10/18 5/9/18 
f 2/11/19 1/1/20 9/7/20 
f 9/7/20 12/12/19 2/11/19 
# 28 faces

